<?xml version="1.0" encoding="UTF-8" ?>
<!DOCTYPE svg PUBLIC "-//W3C//DTD SVG 1.1//EN" "http://www.w3.org/Graphics/SVG/1.1/DTD/svg11.dtd">
<svg width="1024pt" height="1024pt" viewBox="0 0 1024 1024" version="1.1" xmlns="http://www.w3.org/2000/svg">
<g id="#101e2fff">
<path fill="#101e2f" opacity="1.00" d=" M 0.00 0.00 L 1024.00 0.00 L 1024.00 1024.00 L 0.00 1024.00 L 0.00 0.00 M 431.33 208.33 C 407.47 220.00 385.62 236.15 368.41 256.46 C 351.63 275.69 338.21 298.02 330.37 322.37 C 320.84 350.34 319.22 380.61 323.51 409.74 C 325.25 421.69 328.70 433.30 332.41 444.77 C 358.19 438.68 383.89 432.24 409.77 426.56 C 409.96 409.11 409.65 391.65 409.88 374.20 C 419.25 374.27 428.63 374.19 438.00 374.20 C 438.00 364.78 438.01 355.36 437.99 345.95 C 437.83 339.32 439.92 332.42 444.62 327.62 C 448.33 323.71 453.63 321.53 458.99 321.42 C 470.99 321.09 483.00 321.55 495.00 321.29 C 495.00 306.53 495.00 291.76 495.00 277.00 C 513.67 277.00 532.34 277.00 551.01 277.00 C 550.99 291.77 551.00 306.54 551.00 321.31 C 569.61 321.43 588.22 321.37 606.82 321.34 C 607.01 340.94 606.86 360.55 606.99 380.16 C 619.10 377.02 631.59 375.85 644.06 375.48 C 645.85 375.34 647.45 376.27 648.99 377.05 C 657.99 381.93 666.70 387.33 675.32 392.83 C 676.94 393.55 675.89 395.33 675.60 396.52 C 661.86 434.23 648.58 472.12 634.95 509.88 C 641.49 509.00 647.97 507.50 654.16 505.19 C 656.05 504.57 657.45 503.12 658.65 501.60 C 664.25 494.47 669.67 487.18 674.37 479.42 C 694.15 447.81 703.91 410.19 702.63 372.97 C 701.72 334.29 688.20 296.03 664.63 265.35 C 642.71 236.57 612.67 213.82 578.60 201.44 C 531.29 183.58 476.85 186.51 431.33 208.33 M 459.05 342.27 C 458.93 366.52 459.03 390.76 459.00 415.01 C 501.05 405.17 543.01 394.97 585.00 384.87 C 585.00 370.61 585.00 356.36 585.00 342.11 C 543.02 342.30 501.03 342.09 459.05 342.27 M 632.57 396.55 C 622.08 398.57 611.57 400.55 601.22 403.24 C 561.13 413.00 521.02 422.72 480.74 431.68 C 453.39 437.86 426.16 444.59 398.81 450.79 C 379.56 454.89 360.41 459.47 341.47 464.81 C 349.65 480.94 360.13 495.84 372.16 509.32 C 378.69 507.99 385.05 505.95 391.59 504.64 C 407.65 501.16 424.44 501.94 440.40 505.62 C 457.37 509.76 474.31 515.54 492.01 515.00 C 510.11 515.89 527.52 510.05 544.90 505.90 C 557.04 503.21 569.53 501.92 581.95 502.66 C 592.47 503.38 602.50 506.90 612.90 508.39 C 625.58 473.00 638.74 437.77 651.12 402.27 C 647.22 400.33 643.34 398.35 639.33 396.64 C 637.21 395.53 634.79 396.22 632.57 396.55 M 390.59 526.47 C 400.26 535.84 411.92 542.92 423.64 549.43 C 442.27 559.51 462.74 565.84 483.58 569.36 C 525.98 575.82 570.55 567.43 607.47 545.51 C 614.70 541.08 622.16 536.84 628.54 531.20 C 613.74 529.67 599.12 526.77 584.62 523.53 C 579.49 522.52 574.22 522.56 569.02 522.80 C 554.25 523.37 540.47 529.30 526.10 532.06 C 504.74 537.10 482.32 536.82 460.93 532.08 C 452.04 530.28 443.31 527.83 434.57 525.43 C 420.20 521.49 404.75 521.85 390.59 526.47 M 703.45 636.60 C 696.17 638.07 690.95 646.92 694.18 653.86 C 696.90 659.62 704.12 663.47 710.33 661.28 C 715.89 659.66 719.64 653.68 719.08 647.98 C 719.30 640.21 710.65 634.49 703.45 636.60 M 126.67 638.02 C 126.67 676.82 126.71 715.62 126.63 754.41 C 134.03 754.35 141.43 754.38 148.82 754.42 C 148.44 728.69 148.98 702.96 148.54 677.24 C 166.18 702.85 183.59 728.63 200.98 754.40 C 207.93 754.35 214.89 754.39 221.84 754.33 C 221.70 715.57 221.72 676.80 221.83 638.04 C 214.38 637.98 206.92 638.00 199.47 638.04 C 199.55 662.49 199.45 686.95 199.39 711.40 C 182.65 687.09 166.41 662.42 149.81 638.00 C 142.10 638.03 134.38 637.99 126.67 638.02 M 252.76 675.76 C 243.12 682.02 236.94 692.79 235.41 704.08 C 234.16 715.51 235.10 727.76 241.18 737.81 C 246.36 747.13 256.10 753.27 266.37 755.48 C 277.48 757.63 289.64 756.51 299.33 750.31 C 306.97 745.73 312.38 737.83 313.87 729.04 C 307.06 728.97 300.25 729.03 293.44 729.00 C 291.90 732.64 289.42 736.13 285.59 737.57 C 278.48 740.43 269.44 739.70 263.74 734.24 C 259.48 730.00 257.57 723.89 257.75 717.96 C 276.50 718.01 295.24 718.00 313.99 717.97 C 314.40 705.36 313.03 691.52 304.31 681.68 C 291.93 666.99 268.32 665.23 252.76 675.76 M 443.67 669.95 C 436.53 671.41 430.61 676.45 426.93 682.59 C 426.91 678.73 426.95 674.87 426.95 671.02 C 419.63 671.04 412.32 671.00 405.01 671.02 C 405.02 698.82 405.01 726.63 405.01 754.43 C 412.32 754.36 419.64 754.43 426.96 754.42 C 426.97 737.59 426.98 720.76 426.95 703.94 C 426.93 699.42 428.03 694.62 431.17 691.21 C 435.85 685.83 444.57 684.67 450.61 688.33 C 455.70 691.72 456.51 698.36 456.93 703.96 C 457.11 720.79 456.96 737.62 457.00 754.45 C 464.33 754.36 471.66 754.40 478.99 754.42 C 478.99 737.58 478.99 720.75 478.98 703.92 C 479.07 699.43 480.17 694.68 483.21 691.24 C 487.81 685.81 496.54 684.79 502.51 688.42 C 507.71 692.14 508.27 699.17 508.47 705.04 C 508.71 721.53 508.44 738.02 508.63 754.51 C 516.00 754.29 523.37 754.43 530.75 754.41 C 530.42 736.32 530.74 718.21 530.54 700.12 C 530.27 691.71 528.74 682.63 522.59 676.41 C 515.71 669.36 504.95 667.94 495.67 669.87 C 487.58 671.51 480.79 676.99 476.25 683.73 C 474.41 680.11 472.05 676.69 468.73 674.28 C 461.64 669.03 452.10 668.15 443.67 669.95 M 554.59 676.64 C 548.28 681.00 544.15 688.29 543.76 695.97 C 550.81 696.01 557.86 695.97 564.92 695.99 C 567.66 685.14 582.49 681.86 590.86 688.11 C 595.44 691.83 595.23 698.22 595.15 703.57 C 583.22 704.87 570.98 704.89 559.44 708.55 C 552.51 710.74 546.05 715.59 543.59 722.64 C 540.54 731.66 542.69 742.63 549.84 749.16 C 557.24 755.72 568.00 757.56 577.49 755.54 C 584.91 753.91 590.95 748.76 595.29 742.72 C 595.31 746.61 595.24 750.50 595.17 754.40 C 602.48 754.46 609.78 754.31 617.09 754.49 C 616.95 735.98 617.09 717.47 616.97 698.96 C 616.42 691.25 613.98 683.21 608.23 677.76 C 602.36 672.07 594.04 669.87 586.09 669.27 C 575.23 668.61 563.63 670.14 554.59 676.64 M 774.59 669.75 C 766.63 671.20 759.85 676.63 755.82 683.53 C 755.71 679.36 755.72 675.19 755.75 671.03 C 748.38 671.00 741.00 671.02 733.63 671.03 C 733.68 698.83 733.67 726.63 733.64 754.44 C 741.02 754.32 748.39 754.45 755.77 754.37 C 755.55 739.92 755.73 725.46 755.67 711.01 C 755.75 705.46 755.63 699.54 758.52 694.59 C 762.55 687.48 772.52 684.35 779.75 688.27 C 785.46 691.67 786.76 698.81 787.01 704.92 C 787.00 721.43 787.00 737.94 787.00 754.46 C 794.33 754.37 801.67 754.35 809.00 754.44 C 808.98 734.93 809.02 715.42 808.97 695.92 C 808.47 688.28 806.03 680.16 799.89 675.15 C 793.07 669.13 783.22 668.17 774.59 669.75 M 832.71 680.71 C 824.46 688.79 820.59 700.60 821.00 712.00 C 820.58 721.44 822.62 731.19 827.93 739.12 C 833.45 747.93 843.14 753.61 853.21 755.58 C 864.26 757.51 876.43 756.37 885.84 749.83 C 892.99 745.19 898.03 737.51 899.22 729.05 C 892.54 728.96 885.87 729.02 879.19 729.00 C 875.14 739.87 860.11 741.96 851.41 735.63 C 845.90 731.62 843.48 724.58 843.59 717.96 C 862.13 718.02 880.68 717.98 899.22 717.99 C 899.43 706.16 898.97 693.29 891.53 683.46 C 878.21 665.07 847.94 664.42 832.71 680.71 M 654.00 683.55 C 654.02 679.37 654.11 675.20 654.10 671.03 C 646.89 671.00 639.68 671.02 632.47 671.01 C 632.67 698.82 632.53 726.63 632.55 754.44 C 639.83 754.37 647.11 754.39 654.39 754.41 C 654.41 739.94 654.33 725.48 654.46 711.01 C 654.50 704.86 656.89 698.67 661.55 694.54 C 667.58 688.88 676.68 688.27 684.31 690.48 C 684.18 683.69 684.30 676.89 684.24 670.10 C 672.43 667.04 660.31 673.65 654.00 683.55 M 315.72 671.02 C 324.41 684.38 333.01 697.80 341.59 711.24 C 333.08 725.80 324.01 740.04 315.18 754.41 C 323.13 754.44 331.09 754.37 339.04 754.47 C 344.33 744.80 349.84 735.25 355.01 725.51 C 360.07 735.33 365.87 744.74 371.21 754.40 C 379.72 754.43 388.22 754.32 396.73 754.49 C 387.48 739.87 377.89 725.47 368.58 710.88 C 376.81 697.54 385.17 684.29 393.59 671.08 C 385.70 670.95 377.80 671.07 369.91 671.02 C 365.04 679.79 360.12 688.55 355.35 697.38 C 350.60 688.59 345.67 679.89 341.09 671.01 C 332.63 671.03 324.17 671.01 315.72 671.02 M 695.78 671.02 C 695.76 698.83 695.77 726.63 695.74 754.44 C 703.04 754.30 710.35 754.54 717.65 754.29 C 717.48 726.54 717.51 698.79 717.64 671.04 C 710.35 670.99 703.06 671.05 695.78 671.02 Z" />
<path fill="#101e2f" opacity="1.00" d=" M 512.80 355.28 C 518.27 355.37 523.74 355.40 529.21 355.27 C 529.39 362.19 529.32 369.12 529.32 376.05 C 523.79 376.07 518.27 376.05 512.75 376.03 C 512.73 369.11 512.68 362.19 512.80 355.28 Z" />
<path fill="#101e2f" opacity="1.00" d=" M 480.78 355.46 C 486.38 355.35 491.98 355.29 497.58 355.40 C 497.57 362.28 497.58 369.16 497.51 376.04 C 491.94 376.06 486.37 376.04 480.80 376.04 C 480.72 369.18 480.73 362.32 480.78 355.46 Z" />
<path fill="#101e2f" opacity="1.00" d=" M 263.08 690.08 C 267.92 685.01 276.02 684.25 282.32 686.71 C 288.94 689.70 291.69 697.49 291.13 704.34 C 280.01 704.25 268.89 704.25 257.78 704.32 C 258.25 699.26 259.42 693.85 263.08 690.08 Z" />
<path fill="#101e2f" opacity="1.00" d=" M 852.41 687.39 C 858.99 684.04 868.51 684.48 873.19 690.81 C 876.18 694.66 876.54 699.64 876.93 704.31 C 865.86 704.29 854.80 704.23 843.73 704.33 C 844.14 697.86 846.34 690.69 852.41 687.39 Z" />
<path fill="#101e2f" opacity="1.00" d=" M 572.09 720.12 C 579.64 717.99 587.54 717.92 595.26 716.77 C 595.03 721.88 595.97 727.48 593.15 732.07 C 588.84 739.66 578.54 742.07 570.66 739.30 C 565.38 737.41 562.29 730.83 564.73 725.67 C 565.89 722.56 569.08 720.96 572.09 720.12 Z" />
</g>
<g id="#108aedff">
<path fill="#108aed" opacity="1.00" d=" M 431.33 208.33 C 476.85 186.51 531.29 183.58 578.60 201.44 C 612.67 213.82 642.71 236.57 664.63 265.35 C 688.20 296.03 701.72 334.29 702.63 372.97 C 703.91 410.19 694.15 447.81 674.37 479.42 C 669.67 487.18 664.25 494.47 658.65 501.60 C 657.45 503.12 656.05 504.57 654.16 505.19 C 647.97 507.50 641.49 509.00 634.95 509.88 C 648.58 472.12 661.86 434.23 675.60 396.52 C 675.89 395.33 676.94 393.55 675.32 392.83 C 666.70 387.33 657.99 381.93 648.99 377.05 C 647.45 376.27 645.85 375.34 644.06 375.48 C 631.59 375.85 619.10 377.02 606.99 380.16 C 606.86 360.55 607.01 340.94 606.82 321.34 C 588.22 321.37 569.61 321.43 551.00 321.31 C 551.00 306.54 550.99 291.77 551.01 277.00 C 532.34 277.00 513.67 277.00 495.00 277.00 C 495.00 291.76 495.00 306.53 495.00 321.29 C 483.00 321.55 470.99 321.09 458.99 321.42 C 453.63 321.53 448.33 323.71 444.62 327.62 C 439.92 332.42 437.83 339.32 437.99 345.95 C 438.01 355.36 438.00 364.78 438.00 374.20 C 428.63 374.19 419.25 374.27 409.88 374.20 C 409.65 391.65 409.96 409.11 409.77 426.56 C 383.89 432.24 358.19 438.68 332.41 444.77 C 328.70 433.30 325.25 421.69 323.51 409.74 C 319.22 380.61 320.84 350.34 330.37 322.37 C 338.21 298.02 351.63 275.69 368.41 256.46 C 385.62 236.15 407.47 220.00 431.33 208.33 Z" />
<path fill="#108aed" opacity="1.00" d=" M 459.05 342.27 C 501.03 342.09 543.02 342.30 585.00 342.11 C 585.00 356.36 585.00 370.61 585.00 384.87 C 543.01 394.97 501.05 405.17 459.00 415.01 C 459.03 390.76 458.93 366.52 459.05 342.27 M 512.80 355.28 C 512.68 362.19 512.73 369.11 512.75 376.03 C 518.27 376.05 523.79 376.07 529.32 376.05 C 529.32 369.12 529.39 362.19 529.21 355.27 C 523.74 355.40 518.27 355.37 512.80 355.28 M 480.78 355.46 C 480.73 362.32 480.72 369.18 480.80 376.04 C 486.37 376.04 491.94 376.06 497.51 376.04 C 497.58 369.16 497.57 362.28 497.58 355.40 C 491.98 355.29 486.38 355.35 480.78 355.46 Z" />
</g>
<g id="#04a3c7ff">
<path fill="#04a3c7" opacity="1.00" d=" M 632.57 396.55 C 634.79 396.22 637.21 395.53 639.33 396.64 C 643.34 398.35 647.22 400.33 651.12 402.27 C 638.74 437.77 625.58 473.00 612.90 508.39 C 602.50 506.90 592.47 503.38 581.95 502.66 C 569.53 501.92 557.04 503.21 544.90 505.90 C 527.52 510.05 510.11 515.89 492.01 515.00 C 474.31 515.54 457.37 509.76 440.40 505.62 C 424.44 501.94 407.65 501.16 391.59 504.64 C 385.05 505.95 378.69 507.99 372.16 509.32 C 360.13 495.84 349.65 480.94 341.47 464.81 C 360.41 459.47 379.56 454.89 398.81 450.79 C 426.16 444.59 453.39 437.86 480.74 431.68 C 521.02 422.72 561.13 413.00 601.22 403.24 C 611.57 400.55 622.08 398.57 632.57 396.55 Z" />
<path fill="#04a3c7" opacity="1.00" d=" M 390.59 526.47 C 404.75 521.85 420.20 521.49 434.57 525.43 C 443.31 527.83 452.04 530.28 460.93 532.08 C 482.32 536.82 504.74 537.10 526.10 532.06 C 540.47 529.30 554.25 523.37 569.02 522.80 C 574.22 522.56 579.49 522.52 584.62 523.53 C 599.12 526.77 613.74 529.67 628.54 531.20 C 622.16 536.84 614.70 541.08 607.47 545.51 C 570.55 567.43 525.98 575.82 483.58 569.36 C 462.74 565.84 442.27 559.51 423.64 549.43 C 411.92 542.92 400.26 535.84 390.59 526.47 Z" />
</g>
<g id="#ffffffff">
<path fill="#ffffff" opacity="1.00" d=" M 703.45 636.60 C 710.65 634.49 719.30 640.21 719.08 647.98 C 719.64 653.68 715.89 659.66 710.33 661.28 C 704.12 663.47 696.90 659.62 694.18 653.86 C 690.95 646.92 696.17 638.07 703.45 636.60 Z" />
<path fill="#ffffff" opacity="1.00" d=" M 126.67 638.02 C 134.38 637.99 142.10 638.03 149.81 638.00 C 166.41 662.42 182.65 687.09 199.39 711.40 C 199.45 686.95 199.55 662.49 199.47 638.04 C 206.92 638.00 214.38 637.98 221.83 638.04 C 221.72 676.80 221.70 715.57 221.84 754.33 C 214.89 754.39 207.93 754.35 200.98 754.40 C 183.59 728.63 166.18 702.85 148.54 677.24 C 148.98 702.96 148.44 728.69 148.82 754.42 C 141.43 754.38 134.03 754.35 126.63 754.41 C 126.71 715.62 126.67 676.82 126.67 638.02 Z" />
<path fill="#ffffff" opacity="1.00" d=" M 252.76 675.76 C 268.32 665.23 291.93 666.99 304.31 681.68 C 313.03 691.52 314.40 705.36 313.99 717.97 C 295.24 718.00 276.50 718.01 257.75 717.96 C 257.57 723.89 259.48 730.00 263.74 734.24 C 269.44 739.70 278.48 740.43 285.59 737.57 C 289.42 736.13 291.90 732.64 293.44 729.00 C 300.25 729.03 307.06 728.97 313.87 729.04 C 312.38 737.83 306.97 745.73 299.33 750.31 C 289.64 756.51 277.48 757.63 266.37 755.48 C 256.10 753.27 246.36 747.13 241.18 737.81 C 235.10 727.76 234.16 715.51 235.41 704.08 C 236.94 692.79 243.12 682.02 252.76 675.76 M 263.08 690.08 C 259.42 693.85 258.25 699.26 257.78 704.32 C 268.89 704.25 280.01 704.25 291.13 704.34 C 291.69 697.49 288.94 689.70 282.32 686.71 C 276.02 684.25 267.92 685.01 263.08 690.08 Z" />
<path fill="#ffffff" opacity="1.00" d=" M 443.67 669.95 C 452.10 668.15 461.64 669.03 468.73 674.28 C 472.05 676.69 474.41 680.11 476.25 683.73 C 480.79 676.99 487.58 671.51 495.67 669.87 C 504.95 667.94 515.71 669.36 522.59 676.41 C 528.74 682.63 530.27 691.71 530.54 700.12 C 530.74 718.21 530.42 736.32 530.75 754.41 C 523.37 754.43 516.00 754.29 508.63 754.51 C 508.44 738.02 508.71 721.53 508.47 705.04 C 508.27 699.17 507.71 692.14 502.51 688.42 C 496.54 684.79 487.81 685.81 483.21 691.24 C 480.17 694.68 479.07 699.43 478.98 703.92 C 478.99 720.75 478.99 737.58 478.99 754.42 C 471.66 754.40 464.33 754.36 457.00 754.45 C 456.96 737.62 457.11 720.79 456.93 703.96 C 456.51 698.36 455.70 691.72 450.61 688.33 C 444.57 684.67 435.85 685.83 431.17 691.21 C 428.03 694.62 426.93 699.42 426.95 703.94 C 426.98 720.76 426.97 737.59 426.96 754.42 C 419.64 754.43 412.32 754.36 405.01 754.43 C 405.01 726.63 405.02 698.82 405.01 671.02 C 412.32 671.00 419.63 671.04 426.95 671.02 C 426.95 674.87 426.91 678.73 426.93 682.59 C 430.61 676.45 436.53 671.41 443.67 669.95 Z" />
<path fill="#ffffff" opacity="1.00" d=" M 554.59 676.64 C 563.63 670.14 575.23 668.61 586.09 669.27 C 594.04 669.87 602.36 672.07 608.23 677.76 C 613.98 683.21 616.42 691.25 616.97 698.96 C 617.09 717.47 616.95 735.98 617.09 754.49 C 609.78 754.31 602.48 754.46 595.17 754.40 C 595.24 750.50 595.31 746.61 595.29 742.72 C 590.95 748.76 584.91 753.91 577.49 755.54 C 568.00 757.56 557.24 755.72 549.84 749.16 C 542.69 742.63 540.54 731.66 543.59 722.64 C 546.05 715.59 552.51 710.74 559.44 708.55 C 570.98 704.89 583.22 704.87 595.15 703.57 C 595.23 698.22 595.44 691.83 590.86 688.11 C 582.49 681.86 567.66 685.14 564.92 695.99 C 557.86 695.97 550.81 696.01 543.76 695.97 C 544.15 688.29 548.28 681.00 554.59 676.64 M 572.09 720.12 C 569.08 720.96 565.89 722.56 564.73 725.67 C 562.29 730.83 565.38 737.41 570.66 739.30 C 578.54 742.07 588.84 739.66 593.15 732.07 C 595.97 727.48 595.03 721.88 595.26 716.77 C 587.54 717.92 579.64 717.99 572.09 720.12 Z" />
<path fill="#ffffff" opacity="1.00" d=" M 774.59 669.75 C 783.22 668.17 793.07 669.13 799.89 675.15 C 806.03 680.16 808.47 688.28 808.97 695.92 C 809.02 715.42 808.98 734.93 809.00 754.44 C 801.67 754.35 794.33 754.37 787.00 754.46 C 787.00 737.94 787.00 721.43 787.01 704.92 C 786.76 698.81 785.46 691.67 779.75 688.27 C 772.52 684.35 762.55 687.48 758.52 694.59 C 755.63 699.54 755.75 705.46 755.67 711.01 C 755.73 725.46 755.55 739.92 755.77 754.37 C 748.39 754.45 741.02 754.32 733.64 754.44 C 733.67 726.63 733.68 698.83 733.63 671.03 C 741.00 671.02 748.38 671.00 755.75 671.03 C 755.72 675.19 755.71 679.36 755.82 683.53 C 759.85 676.63 766.63 671.20 774.59 669.75 Z" />
<path fill="#ffffff" opacity="1.00" d=" M 832.71 680.71 C 847.94 664.42 878.21 665.07 891.53 683.46 C 898.97 693.29 899.43 706.16 899.22 717.99 C 880.68 717.98 862.13 718.02 843.59 717.96 C 843.48 724.58 845.90 731.62 851.41 735.63 C 860.11 741.96 875.14 739.87 879.19 729.00 C 885.87 729.02 892.54 728.96 899.22 729.05 C 898.03 737.51 892.99 745.19 885.84 749.83 C 876.43 756.37 864.26 757.51 853.21 755.58 C 843.14 753.61 833.45 747.93 827.93 739.12 C 822.62 731.19 820.58 721.44 821.00 712.00 C 820.59 700.60 824.46 688.79 832.71 680.71 M 852.41 687.39 C 846.34 690.69 844.14 697.86 843.73 704.33 C 854.80 704.23 865.86 704.29 876.93 704.31 C 876.54 699.64 876.18 694.66 873.19 690.81 C 868.51 684.48 858.99 684.04 852.41 687.39 Z" />
<path fill="#ffffff" opacity="1.00" d=" M 654.00 683.55 C 660.31 673.65 672.43 667.04 684.24 670.10 C 684.30 676.89 684.18 683.69 684.31 690.48 C 676.68 688.27 667.58 688.88 661.55 694.54 C 656.89 698.67 654.50 704.86 654.46 711.01 C 654.33 725.48 654.41 739.94 654.39 754.41 C 647.11 754.39 639.83 754.37 632.55 754.44 C 632.53 726.63 632.67 698.82 632.47 671.01 C 639.68 671.02 646.89 671.00 654.10 671.03 C 654.11 675.20 654.02 679.37 654.00 683.55 Z" />
<path fill="#ffffff" opacity="1.00" d=" M 315.72 671.02 C 324.17 671.01 332.63 671.03 341.09 671.01 C 345.67 679.89 350.60 688.59 355.35 697.38 C 360.12 688.55 365.04 679.79 369.91 671.02 C 377.80 671.07 385.70 670.95 393.59 671.08 C 385.17 684.29 376.81 697.54 368.58 710.88 C 377.89 725.47 387.48 739.87 396.73 754.49 C 388.22 754.32 379.72 754.43 371.21 754.40 C 365.87 744.74 360.07 735.33 355.01 725.51 C 349.84 735.25 344.33 744.80 339.04 754.47 C 331.09 754.37 323.13 754.44 315.18 754.41 C 324.01 740.04 333.08 725.80 341.59 711.24 C 333.01 697.80 324.41 684.38 315.72 671.02 Z" />
<path fill="#ffffff" opacity="1.00" d=" M 695.78 671.02 C 703.06 671.05 710.35 670.99 717.64 671.04 C 717.51 698.79 717.48 726.54 717.65 754.29 C 710.35 754.54 703.04 754.30 695.74 754.44 C 695.77 726.63 695.76 698.83 695.78 671.02 Z" />
</g>
</svg>
