<?xml version="1.0" encoding="UTF-8" ?>
<!DOCTYPE svg PUBLIC "-//W3C//DTD SVG 1.1//EN" "http://www.w3.org/Graphics/SVG/1.1/DTD/svg11.dtd">
<svg width="1024pt" height="1024pt" viewBox="0 0 1024 1024" version="1.1" xmlns="http://www.w3.org/2000/svg">
<g id="#0f1c2cff">
<path fill="#0f1c2c" opacity="1.00" d=" M 0.00 0.00 L 1024.00 0.00 L 1024.00 1024.00 L 0.00 1024.00 L 0.00 0.00 M 582.04 276.56 C 557.69 276.57 533.98 287.87 517.35 305.43 C 509.03 313.74 500.68 322.03 492.40 330.38 C 483.50 339.60 474.39 349.05 462.74 354.79 C 453.32 359.64 442.53 361.22 432.03 361.00 C 381.14 361.00 330.26 361.00 279.37 361.00 C 284.59 373.69 289.78 386.39 295.19 399.00 C 345.49 398.99 395.79 399.12 446.08 398.97 C 460.99 397.07 475.91 393.00 488.67 384.81 C 500.27 378.07 509.30 368.02 518.85 358.80 C 525.31 352.28 531.89 345.87 538.27 339.27 C 546.62 330.83 555.43 321.84 567.13 318.36 C 580.01 314.12 593.71 316.03 607.00 315.98 C 618.63 315.84 629.61 320.60 639.43 326.44 C 655.30 336.57 665.57 353.94 669.28 372.16 C 673.15 391.54 672.33 411.45 670.74 431.03 C 669.44 440.94 667.39 450.94 662.89 459.95 C 654.08 474.61 642.38 488.90 625.71 494.72 C 614.70 499.22 602.67 498.20 591.07 498.19 C 576.68 498.46 562.27 494.22 550.23 486.37 C 541.83 495.54 532.80 504.13 524.57 513.45 C 530.19 518.22 535.88 523.10 542.69 526.12 C 564.18 536.40 588.68 538.54 612.15 536.43 C 629.60 534.84 647.00 529.69 661.53 519.71 C 675.07 510.00 686.75 497.63 695.38 483.36 C 701.16 472.62 704.99 460.88 707.23 448.91 C 710.26 434.17 711.56 419.08 711.03 404.04 C 711.34 384.05 707.38 364.26 701.74 345.17 C 698.67 337.12 694.53 329.48 689.41 322.54 C 682.76 312.46 674.12 303.79 664.53 296.50 C 657.23 291.52 649.93 286.25 641.45 283.49 C 631.28 280.06 620.63 278.29 610.00 276.98 C 600.76 275.53 591.34 275.82 582.04 276.56 M 390.46 281.57 C 379.11 285.05 368.94 291.47 359.66 298.76 C 348.49 307.58 338.78 318.34 331.57 330.64 C 329.13 334.93 327.41 339.57 325.26 344.01 C 340.22 343.99 355.18 344.00 370.14 344.00 C 376.12 336.12 383.34 329.03 391.99 324.12 C 400.73 318.96 410.91 316.73 420.99 316.68 C 439.51 315.05 459.68 315.46 475.48 326.56 C 484.68 317.48 494.63 309.18 503.29 299.56 C 485.31 284.96 462.26 276.45 439.02 276.98 C 422.76 276.82 406.18 276.91 390.46 281.57 M 526.12 371.32 C 538.42 384.14 554.51 393.31 571.95 396.91 C 584.17 399.03 596.63 398.45 608.99 398.53 C 624.50 398.53 640.01 398.39 655.52 398.70 C 655.63 385.66 654.29 372.49 650.12 360.08 C 636.10 360.34 622.07 360.19 608.05 360.19 C 597.99 360.09 587.76 360.79 577.95 358.07 C 568.47 356.03 560.21 350.80 552.02 345.93 C 543.30 354.29 534.85 362.96 526.12 371.32 M 238.05 361.36 C 242.94 373.98 248.10 386.51 253.32 399.00 C 262.22 399.01 271.13 398.97 280.03 399.02 C 274.57 386.42 269.27 373.75 263.74 361.17 C 255.18 361.34 246.61 361.58 238.05 361.36 M 722.72 360.99 C 724.22 373.63 725.79 386.27 726.08 399.00 C 738.35 399.00 750.61 399.00 762.88 399.00 C 757.69 386.30 752.16 373.74 746.50 361.25 C 738.57 361.29 730.63 361.46 722.72 360.99 M 764.02 361.40 C 769.14 373.99 774.39 386.53 779.80 399.00 C 782.19 399.02 784.60 399.05 787.00 399.12 C 787.00 386.54 787.00 373.96 787.00 361.39 C 779.34 361.47 771.68 361.47 764.02 361.40 M 555.82 418.89 C 545.21 422.73 534.96 428.02 526.47 435.55 C 515.39 445.77 505.38 457.08 494.60 467.63 C 484.75 477.49 475.11 488.38 462.11 494.12 C 450.48 499.30 437.44 499.02 424.97 499.00 C 417.56 499.17 410.13 498.14 403.01 496.09 C 389.05 492.48 376.81 483.28 368.73 471.42 C 364.81 465.88 361.30 459.94 359.51 453.34 C 355.98 441.14 354.96 428.39 354.23 415.77 C 342.01 415.80 329.78 415.88 317.56 415.43 C 317.89 441.14 321.00 468.01 334.71 490.37 C 340.26 500.11 348.43 507.99 356.98 515.08 C 378.76 532.46 407.57 538.93 434.99 537.34 C 449.70 537.41 464.69 535.35 478.15 529.17 C 491.28 523.17 503.12 514.53 513.20 504.23 C 523.33 494.37 533.21 484.25 543.15 474.20 C 551.49 465.78 561.07 457.63 572.94 455.02 C 583.75 452.29 594.96 453.23 605.99 453.11 C 620.52 453.05 635.06 453.12 649.59 453.04 C 653.95 440.25 656.01 426.89 657.93 413.57 C 644.96 413.58 631.99 413.59 619.02 413.61 C 597.90 413.74 576.19 412.07 555.82 418.89 M 725.73 415.31 C 725.52 427.28 723.51 439.08 721.76 450.89 C 730.09 450.63 738.44 450.79 746.78 450.60 C 742.05 438.79 737.04 427.05 731.42 415.65 C 729.54 415.30 727.62 415.38 725.73 415.31 M 749.23 415.04 C 753.12 427.24 758.70 438.83 763.23 450.80 C 771.25 450.69 779.27 450.82 787.29 450.88 C 783.57 441.23 779.92 431.55 776.12 421.93 C 775.12 419.63 774.45 417.13 772.93 415.11 C 765.03 414.89 757.12 415.32 749.23 415.04 M 240.00 416.00 C 240.00 427.60 239.99 439.21 240.01 450.81 C 248.71 450.61 257.42 450.74 266.14 450.73 C 261.55 439.05 256.40 427.61 251.68 415.99 C 247.78 416.00 243.89 416.00 240.00 416.00 M 268.84 416.00 C 273.47 427.55 278.09 439.11 282.46 450.77 C 289.86 450.62 297.25 450.75 304.65 450.75 C 302.55 439.28 302.70 427.61 302.33 416.00 C 291.17 416.00 280.00 416.00 268.84 416.00 M 368.82 416.00 C 369.62 428.59 370.67 441.39 375.20 453.29 C 393.17 453.58 411.14 453.33 429.11 453.58 C 444.84 453.79 460.29 459.13 473.13 468.13 C 481.92 458.62 491.71 450.13 501.06 441.20 C 485.44 428.21 466.49 418.61 446.06 416.79 C 438.08 415.70 430.02 416.05 422.00 416.00 C 404.27 416.00 386.55 416.00 368.82 416.00 M 612.21 611.28 C 604.52 612.68 599.84 621.31 602.52 628.58 C 605.59 638.17 619.61 640.14 626.24 633.21 C 630.77 628.69 631.04 620.79 626.94 615.91 C 623.48 611.57 617.48 610.16 612.21 611.28 M 189.22 630.13 C 180.88 640.22 179.27 654.86 183.95 666.90 C 187.03 674.69 193.77 680.43 201.27 683.80 C 211.37 688.28 222.16 690.93 232.90 693.34 C 238.32 694.70 244.01 695.91 248.58 699.32 C 253.09 702.64 254.94 708.80 253.67 714.17 C 252.45 719.99 247.49 724.45 241.96 726.23 C 233.01 729.04 223.01 728.43 214.41 724.71 C 207.62 721.73 203.41 715.03 201.65 708.05 C 193.72 708.19 185.78 708.15 177.84 708.13 C 179.07 717.75 182.60 727.43 189.72 734.26 C 198.04 742.93 210.31 746.26 221.95 747.08 C 234.97 747.94 248.96 747.34 260.35 740.24 C 269.86 734.61 277.40 725.15 279.20 714.08 C 281.18 703.92 278.84 692.23 270.88 685.11 C 263.18 678.07 252.71 675.51 242.93 672.79 C 234.16 670.28 224.87 669.27 216.56 665.34 C 210.76 662.57 206.59 656.52 206.98 649.97 C 207.00 642.30 213.34 636.02 220.52 634.31 C 228.37 632.65 237.23 633.07 244.00 637.80 C 247.75 640.37 249.84 644.62 251.05 648.89 C 259.21 648.77 267.38 648.72 275.55 648.86 C 273.86 638.91 269.34 628.95 260.97 622.91 C 249.54 614.57 234.66 613.10 220.96 614.32 C 208.98 615.51 196.74 620.37 189.22 630.13 M 493.17 614.69 C 493.42 658.13 493.33 701.57 493.24 745.00 C 501.08 744.99 508.92 745.01 516.77 744.99 C 516.93 740.21 517.89 735.51 518.21 730.75 C 520.77 734.71 523.49 738.72 527.48 741.40 C 536.11 747.85 547.84 748.73 557.98 745.94 C 569.34 742.94 578.78 734.22 583.30 723.45 C 588.27 712.08 588.85 699.35 587.64 687.17 C 586.18 675.43 581.58 663.36 572.03 655.87 C 563.03 648.64 550.70 646.47 539.53 648.60 C 530.52 650.38 522.96 656.58 518.22 664.28 C 518.78 647.77 518.06 631.24 518.60 614.72 C 510.12 614.69 501.65 614.78 493.17 614.69 M 817.06 614.67 C 817.30 630.84 816.98 647.02 817.20 663.20 C 813.76 656.96 808.00 652.05 801.22 649.81 C 793.05 647.15 784.03 647.23 775.87 649.89 C 765.51 653.41 757.11 661.75 752.95 671.81 C 747.77 684.12 747.09 697.97 749.16 711.06 C 750.89 721.37 755.42 731.59 763.49 738.49 C 772.83 746.50 786.13 749.10 797.99 746.35 C 806.63 744.32 813.70 738.07 818.13 730.53 C 818.03 735.35 818.04 740.18 818.04 745.00 C 826.17 745.00 834.30 745.00 842.43 745.00 C 842.26 701.55 842.25 658.08 842.44 614.63 C 833.98 614.82 825.52 614.70 817.06 614.67 M 306.87 657.79 C 295.76 667.43 290.74 682.57 290.94 696.98 C 290.52 707.90 292.50 719.25 298.47 728.56 C 303.99 737.68 313.57 743.95 323.96 746.03 C 336.55 748.60 350.53 747.44 361.58 740.46 C 370.06 735.38 375.87 726.83 378.82 717.52 C 371.26 717.60 363.71 717.66 356.16 717.59 C 351.05 729.43 333.85 733.20 324.19 724.82 C 318.36 719.73 316.89 711.66 316.05 704.36 C 337.35 704.46 358.65 704.32 379.95 704.42 C 380.96 691.40 379.96 677.55 372.76 666.27 C 366.02 655.39 353.63 648.73 340.98 647.99 C 328.97 646.97 316.15 649.75 306.87 657.79 M 402.81 657.79 C 397.24 662.47 394.39 669.40 392.90 676.35 C 400.74 676.17 408.59 676.20 416.44 676.22 C 419.98 663.79 438.38 661.23 446.55 670.40 C 450.43 674.96 449.92 681.38 449.96 686.98 C 439.67 686.83 429.38 687.72 419.22 689.31 C 411.48 690.61 403.35 692.95 397.79 698.82 C 392.85 704.25 391.29 711.83 391.15 718.96 C 391.34 726.74 393.60 735.09 399.77 740.28 C 407.40 746.89 418.24 748.04 427.92 747.11 C 437.74 746.20 446.61 740.52 452.28 732.57 C 452.29 736.71 452.49 740.85 452.51 745.00 C 460.01 745.00 467.50 745.00 475.00 745.00 C 475.00 725.34 475.00 705.67 475.00 686.01 C 475.04 676.98 473.94 667.16 468.00 659.92 C 461.44 652.02 450.90 648.95 441.03 648.05 C 427.82 647.20 413.17 648.70 402.81 657.79 M 693.54 648.59 C 684.21 650.33 676.00 656.16 670.82 664.05 C 670.66 659.26 669.89 654.53 669.76 649.75 C 662.18 649.71 654.59 649.81 647.01 649.68 C 647.06 681.46 647.07 713.23 647.00 745.00 C 655.33 745.00 663.67 745.00 672.00 745.00 C 671.98 725.34 672.03 705.68 671.97 686.03 C 671.87 681.96 673.18 677.82 675.67 674.60 C 681.83 666.62 694.17 665.52 702.60 670.30 C 707.76 673.23 709.72 679.38 709.53 685.02 C 709.56 705.01 709.64 725.01 709.51 745.00 C 717.90 745.00 726.29 745.00 734.69 745.00 C 734.41 722.71 734.73 700.42 734.55 678.13 C 734.42 667.26 728.39 656.43 718.72 651.24 C 711.06 647.10 701.91 647.09 693.54 648.59 M 603.14 649.72 C 603.26 681.47 603.29 713.23 603.14 744.99 C 611.48 745.01 619.81 744.99 628.15 745.00 C 628.07 713.22 628.08 681.43 628.15 649.65 C 619.82 649.84 611.48 649.73 603.14 649.72 Z" />
<path fill="#0f1c2c" opacity="1.00" d=" M 321.79 672.87 C 327.48 664.76 340.09 663.07 347.82 669.21 C 353.82 673.70 355.42 681.54 355.76 688.61 C 342.57 688.58 329.37 688.47 316.18 688.66 C 317.01 683.11 318.21 677.37 321.79 672.87 Z" />
<path fill="#0f1c2c" opacity="1.00" d=" M 535.49 667.54 C 542.82 665.69 551.34 667.93 556.19 673.91 C 561.24 680.06 563.25 688.23 563.13 696.08 C 563.45 704.34 562.15 713.12 557.17 719.95 C 553.33 725.37 546.63 728.48 540.02 728.16 C 532.76 728.33 525.99 723.65 522.74 717.29 C 518.16 708.63 518.20 698.46 519.04 688.96 C 520.06 679.62 525.82 669.82 535.49 667.54 Z" />
<path fill="#0f1c2c" opacity="1.00" d=" M 789.45 667.68 C 796.30 665.78 804.41 667.24 809.34 672.63 C 815.77 679.31 817.35 689.13 817.12 698.06 C 817.28 706.86 815.69 716.64 808.99 722.96 C 800.62 731.20 784.82 729.58 778.64 719.46 C 772.36 709.47 772.03 696.80 774.37 685.54 C 776.03 677.63 781.26 669.79 789.45 667.68 Z" />
<path fill="#0f1c2c" opacity="1.00" d=" M 422.58 704.43 C 431.14 700.48 440.92 701.20 450.12 700.99 C 449.74 708.19 451.49 716.11 447.53 722.62 C 443.53 729.05 435.26 731.23 428.10 730.50 C 423.47 730.21 418.47 727.83 416.81 723.21 C 414.53 716.67 415.75 707.77 422.58 704.43 Z" />
</g>
<g id="#00b1c0ff">
<path fill="#00b1c0" opacity="1.00" d=" M 582.04 276.56 C 591.34 275.82 600.76 275.53 610.00 276.98 C 620.63 278.29 631.28 280.06 641.45 283.49 C 649.93 286.25 657.23 291.52 664.53 296.50 C 674.12 303.79 682.76 312.46 689.41 322.54 C 694.53 329.48 698.67 337.12 701.74 345.17 C 707.38 364.26 711.34 384.05 711.03 404.04 C 711.56 419.08 710.26 434.17 707.23 448.91 C 704.99 460.88 701.16 472.62 695.38 483.36 C 686.75 497.63 675.07 510.00 661.53 519.71 C 647.00 529.69 629.60 534.84 612.15 536.43 C 588.68 538.54 564.18 536.40 542.69 526.12 C 535.88 523.10 530.19 518.22 524.57 513.45 C 532.80 504.13 541.83 495.54 550.23 486.37 C 562.27 494.22 576.68 498.46 591.07 498.19 C 602.67 498.20 614.70 499.22 625.71 494.72 C 642.38 488.90 654.08 474.61 662.89 459.95 C 667.39 450.94 669.44 440.94 670.74 431.03 C 672.33 411.45 673.15 391.54 669.28 372.16 C 665.57 353.94 655.30 336.57 639.43 326.44 C 629.61 320.60 618.63 315.84 607.00 315.98 C 593.71 316.03 580.01 314.12 567.13 318.36 C 555.43 321.84 546.62 330.83 538.27 339.27 C 531.89 345.87 525.31 352.28 518.85 358.80 C 509.30 368.02 500.27 378.07 488.67 384.81 C 475.91 393.00 460.99 397.07 446.08 398.97 C 395.79 399.12 345.49 398.99 295.19 399.00 C 289.78 386.39 284.59 373.69 279.37 361.00 C 330.26 361.00 381.14 361.00 432.03 361.00 C 442.53 361.22 453.32 359.64 462.74 354.79 C 474.39 349.05 483.50 339.60 492.40 330.38 C 500.68 322.03 509.03 313.74 517.35 305.43 C 533.98 287.87 557.69 276.57 582.04 276.56 Z" />
<path fill="#00b1c0" opacity="1.00" d=" M 390.46 281.57 C 406.18 276.91 422.76 276.82 439.02 276.98 C 462.26 276.45 485.31 284.96 503.29 299.56 C 494.63 309.18 484.68 317.48 475.48 326.56 C 459.68 315.46 439.51 315.05 420.99 316.68 C 410.91 316.73 400.73 318.96 391.99 324.12 C 383.34 329.03 376.12 336.12 370.14 344.00 C 355.18 344.00 340.22 343.99 325.26 344.01 C 327.41 339.57 329.13 334.93 331.57 330.64 C 338.78 318.34 348.49 307.58 359.66 298.76 C 368.94 291.47 379.11 285.05 390.46 281.57 Z" />
<path fill="#00b1c0" opacity="1.00" d=" M 526.12 371.32 C 534.85 362.96 543.30 354.29 552.02 345.93 C 560.21 350.80 568.47 356.03 577.95 358.07 C 587.76 360.79 597.99 360.09 608.05 360.19 C 622.07 360.19 636.10 360.34 650.12 360.08 C 654.29 372.49 655.63 385.66 655.52 398.70 C 640.01 398.39 624.50 398.53 608.99 398.53 C 596.63 398.45 584.17 399.03 571.95 396.91 C 554.51 393.31 538.42 384.14 526.12 371.32 Z" />
<path fill="#00b1c0" opacity="1.00" d=" M 238.05 361.36 C 246.61 361.58 255.18 361.34 263.74 361.17 C 269.27 373.75 274.57 386.42 280.03 399.02 C 271.13 398.97 262.22 399.01 253.32 399.00 C 248.10 386.51 242.94 373.98 238.05 361.36 Z" />
<path fill="#00b1c0" opacity="1.00" d=" M 722.72 360.99 C 730.63 361.46 738.57 361.29 746.50 361.25 C 752.16 373.74 757.69 386.30 762.88 399.00 C 750.61 399.00 738.35 399.00 726.08 399.00 C 725.79 386.27 724.22 373.63 722.72 360.99 Z" />
<path fill="#00b1c0" opacity="1.00" d=" M 764.02 361.40 C 771.68 361.47 779.34 361.47 787.00 361.39 C 787.00 373.96 787.00 386.54 787.00 399.12 C 784.60 399.05 782.19 399.02 779.80 399.00 C 774.39 386.53 769.14 373.99 764.02 361.40 Z" />
<path fill="#00b1c0" opacity="1.00" d=" M 555.82 418.89 C 576.19 412.07 597.90 413.74 619.02 413.61 C 631.99 413.59 644.96 413.58 657.93 413.57 C 656.01 426.89 653.95 440.25 649.59 453.04 C 635.06 453.12 620.52 453.05 605.99 453.11 C 594.96 453.23 583.75 452.29 572.94 455.02 C 561.07 457.63 551.49 465.78 543.15 474.20 C 533.21 484.25 523.33 494.37 513.20 504.23 C 503.12 514.53 491.28 523.17 478.15 529.17 C 464.69 535.35 449.70 537.41 434.99 537.34 C 407.57 538.93 378.76 532.46 356.98 515.08 C 348.43 507.99 340.26 500.11 334.71 490.37 C 321.00 468.01 317.89 441.14 317.56 415.43 C 329.78 415.88 342.01 415.80 354.23 415.77 C 354.96 428.39 355.98 441.14 359.51 453.34 C 361.30 459.94 364.81 465.88 368.73 471.42 C 376.81 483.28 389.05 492.48 403.01 496.09 C 410.13 498.14 417.56 499.17 424.97 499.00 C 437.44 499.02 450.48 499.30 462.11 494.12 C 475.11 488.38 484.75 477.49 494.60 467.63 C 505.38 457.08 515.39 445.77 526.47 435.55 C 534.96 428.02 545.21 422.73 555.82 418.89 Z" />
<path fill="#00b1c0" opacity="1.00" d=" M 725.73 415.31 C 727.62 415.38 729.54 415.30 731.42 415.65 C 737.04 427.05 742.05 438.79 746.78 450.60 C 738.44 450.79 730.09 450.63 721.76 450.89 C 723.51 439.08 725.52 427.28 725.73 415.31 Z" />
<path fill="#00b1c0" opacity="1.00" d=" M 749.23 415.04 C 757.12 415.32 765.03 414.89 772.93 415.11 C 774.45 417.13 775.12 419.63 776.12 421.93 C 779.92 431.55 783.57 441.23 787.29 450.88 C 779.27 450.82 771.25 450.69 763.23 450.80 C 758.70 438.83 753.12 427.24 749.23 415.04 Z" />
<path fill="#00b1c0" opacity="1.00" d=" M 240.00 416.00 C 243.89 416.00 247.78 416.00 251.68 415.99 C 256.40 427.61 261.55 439.05 266.14 450.73 C 257.42 450.74 248.71 450.61 240.01 450.81 C 239.99 439.21 240.00 427.60 240.00 416.00 Z" />
<path fill="#00b1c0" opacity="1.00" d=" M 268.84 416.00 C 280.00 416.00 291.17 416.00 302.33 416.00 C 302.70 427.61 302.55 439.28 304.65 450.75 C 297.25 450.75 289.86 450.62 282.46 450.77 C 278.09 439.11 273.47 427.55 268.84 416.00 Z" />
<path fill="#00b1c0" opacity="1.00" d=" M 368.82 416.00 C 386.55 416.00 404.27 416.00 422.00 416.00 C 430.02 416.05 438.08 415.70 446.06 416.79 C 466.49 418.61 485.44 428.21 501.06 441.20 C 491.71 450.13 481.92 458.62 473.13 468.13 C 460.29 459.13 444.84 453.79 429.11 453.58 C 411.14 453.33 393.17 453.58 375.20 453.29 C 370.67 441.39 369.62 428.59 368.82 416.00 Z" />
</g>
<g id="#fbfbfbff">
<path fill="#fbfbfb" opacity="1.00" d=" M 612.21 611.28 C 617.48 610.16 623.48 611.57 626.94 615.91 C 631.04 620.79 630.77 628.69 626.24 633.21 C 619.61 640.14 605.59 638.17 602.52 628.58 C 599.84 621.31 604.52 612.68 612.21 611.28 Z" />
<path fill="#fbfbfb" opacity="1.00" d=" M 189.22 630.13 C 196.74 620.37 208.98 615.51 220.96 614.32 C 234.66 613.10 249.54 614.57 260.97 622.91 C 269.34 628.95 273.86 638.91 275.55 648.86 C 267.38 648.72 259.21 648.77 251.05 648.89 C 249.84 644.62 247.75 640.37 244.00 637.80 C 237.23 633.07 228.37 632.65 220.52 634.31 C 213.34 636.02 207.00 642.30 206.98 649.97 C 206.59 656.52 210.76 662.57 216.56 665.34 C 224.87 669.27 234.16 670.28 242.93 672.79 C 252.71 675.51 263.18 678.07 270.88 685.11 C 278.84 692.23 281.18 703.92 279.20 714.08 C 277.40 725.15 269.86 734.61 260.35 740.24 C 248.96 747.34 234.97 747.94 221.95 747.08 C 210.31 746.26 198.04 742.93 189.72 734.26 C 182.60 727.43 179.07 717.75 177.84 708.13 C 185.78 708.15 193.72 708.19 201.65 708.05 C 203.41 715.03 207.62 721.73 214.41 724.71 C 223.01 728.43 233.01 729.04 241.96 726.23 C 247.49 724.45 252.45 719.99 253.67 714.17 C 254.94 708.80 253.09 702.64 248.58 699.32 C 244.01 695.91 238.32 694.70 232.90 693.34 C 222.16 690.93 211.37 688.28 201.27 683.80 C 193.77 680.43 187.03 674.69 183.95 666.90 C 179.27 654.86 180.88 640.22 189.22 630.13 Z" />
<path fill="#fbfbfb" opacity="1.00" d=" M 493.17 614.69 C 501.65 614.78 510.12 614.69 518.60 614.72 C 518.06 631.24 518.78 647.77 518.22 664.28 C 522.96 656.58 530.52 650.38 539.53 648.60 C 550.70 646.47 563.03 648.64 572.03 655.87 C 581.58 663.36 586.18 675.43 587.64 687.17 C 588.85 699.35 588.27 712.08 583.30 723.45 C 578.78 734.22 569.34 742.94 557.98 745.94 C 547.84 748.73 536.11 747.85 527.48 741.40 C 523.49 738.72 520.77 734.71 518.21 730.75 C 517.89 735.51 516.93 740.21 516.77 744.99 C 508.92 745.01 501.08 744.99 493.24 745.00 C 493.33 701.57 493.42 658.13 493.17 614.69 M 535.49 667.54 C 525.82 669.82 520.06 679.62 519.04 688.96 C 518.20 698.46 518.16 708.63 522.74 717.29 C 525.99 723.65 532.76 728.33 540.02 728.16 C 546.63 728.48 553.33 725.37 557.17 719.95 C 562.15 713.12 563.45 704.34 563.13 696.08 C 563.25 688.23 561.24 680.06 556.19 673.91 C 551.34 667.93 542.82 665.69 535.49 667.54 Z" />
<path fill="#fbfbfb" opacity="1.00" d=" M 817.06 614.67 C 825.52 614.70 833.98 614.82 842.44 614.63 C 842.25 658.08 842.26 701.55 842.43 745.00 C 834.30 745.00 826.17 745.00 818.04 745.00 C 818.04 740.18 818.03 735.35 818.13 730.53 C 813.70 738.07 806.63 744.32 797.99 746.35 C 786.13 749.10 772.83 746.50 763.49 738.49 C 755.42 731.59 750.89 721.37 749.16 711.06 C 747.09 697.97 747.77 684.12 752.95 671.81 C 757.11 661.75 765.51 653.41 775.87 649.89 C 784.03 647.23 793.05 647.15 801.22 649.81 C 808.00 652.05 813.76 656.96 817.20 663.20 C 816.98 647.02 817.30 630.84 817.06 614.67 M 789.45 667.68 C 781.26 669.79 776.03 677.63 774.37 685.54 C 772.03 696.80 772.36 709.47 778.64 719.46 C 784.82 729.58 800.62 731.20 808.99 722.96 C 815.69 716.64 817.28 706.86 817.12 698.06 C 817.35 689.13 815.77 679.31 809.34 672.63 C 804.41 667.24 796.30 665.78 789.45 667.68 Z" />
<path fill="#fbfbfb" opacity="1.00" d=" M 306.87 657.79 C 316.15 649.75 328.97 646.97 340.98 647.99 C 353.63 648.73 366.02 655.39 372.76 666.27 C 379.96 677.55 380.96 691.40 379.95 704.42 C 358.65 704.32 337.35 704.46 316.05 704.36 C 316.89 711.66 318.36 719.73 324.19 724.82 C 333.85 733.20 351.05 729.43 356.16 717.59 C 363.71 717.66 371.26 717.60 378.82 717.52 C 375.87 726.83 370.06 735.38 361.58 740.46 C 350.53 747.44 336.55 748.60 323.96 746.03 C 313.57 743.95 303.99 737.68 298.47 728.56 C 292.50 719.25 290.52 707.90 290.94 696.98 C 290.74 682.57 295.76 667.43 306.87 657.79 M 321.79 672.87 C 318.21 677.37 317.01 683.11 316.18 688.66 C 329.37 688.47 342.57 688.58 355.76 688.61 C 355.42 681.54 353.82 673.70 347.82 669.21 C 340.09 663.07 327.48 664.76 321.79 672.87 Z" />
<path fill="#fbfbfb" opacity="1.00" d=" M 402.81 657.79 C 413.17 648.70 427.82 647.20 441.03 648.05 C 450.90 648.95 461.44 652.02 468.00 659.92 C 473.94 667.16 475.04 676.98 475.00 686.01 C 475.00 705.67 475.00 725.34 475.00 745.00 C 467.50 745.00 460.01 745.00 452.51 745.00 C 452.49 740.85 452.29 736.71 452.28 732.57 C 446.61 740.52 437.74 746.20 427.92 747.11 C 418.24 748.04 407.40 746.89 399.77 740.28 C 393.60 735.09 391.34 726.74 391.15 718.96 C 391.29 711.83 392.85 704.25 397.79 698.82 C 403.35 692.95 411.48 690.61 419.22 689.31 C 429.38 687.72 439.67 686.83 449.96 686.98 C 449.92 681.38 450.43 674.96 446.55 670.40 C 438.38 661.23 419.98 663.79 416.44 676.22 C 408.59 676.20 400.74 676.17 392.90 676.35 C 394.39 669.40 397.24 662.47 402.81 657.79 M 422.58 704.43 C 415.75 707.77 414.53 716.67 416.81 723.21 C 418.47 727.83 423.47 730.21 428.10 730.50 C 435.26 731.23 443.53 729.05 447.53 722.62 C 451.49 716.11 449.74 708.19 450.12 700.99 C 440.92 701.20 431.14 700.48 422.58 704.43 Z" />
<path fill="#fbfbfb" opacity="1.00" d=" M 693.54 648.59 C 701.91 647.09 711.06 647.10 718.72 651.24 C 728.39 656.43 734.42 667.26 734.55 678.13 C 734.73 700.42 734.41 722.71 734.69 745.00 C 726.29 745.00 717.90 745.00 709.51 745.00 C 709.64 725.01 709.56 705.01 709.53 685.02 C 709.72 679.38 707.76 673.23 702.60 670.30 C 694.17 665.52 681.83 666.62 675.67 674.60 C 673.18 677.82 671.87 681.96 671.97 686.03 C 672.03 705.68 671.98 725.34 672.00 745.00 C 663.67 745.00 655.33 745.00 647.00 745.00 C 647.07 713.23 647.06 681.46 647.01 649.68 C 654.59 649.81 662.18 649.71 669.76 649.75 C 669.89 654.53 670.66 659.26 670.82 664.05 C 676.00 656.16 684.21 650.33 693.54 648.59 Z" />
<path fill="#fbfbfb" opacity="1.00" d=" M 603.14 649.72 C 611.48 649.73 619.82 649.84 628.15 649.65 C 628.08 681.43 628.07 713.22 628.15 745.00 C 619.81 744.99 611.48 745.01 603.14 744.99 C 603.29 713.23 603.26 681.47 603.14 649.72 Z" />
</g>
</svg>
